<svg width="360" height="640" viewBox="0 0 360 640" fill="none" xmlns="http://www.w3.org/2000/svg">
<g clip-path="url(#clip0)">
<rect width="360" height="640" fill="#FAFAFA"/>
<path d="M0 334.886V-80H360V395.912L321.76 425.425C300.769 441.625 271.323 440.999 251.041 423.92C244.866 418.721 237.648 414.91 229.873 412.743L205.04 405.823C182.532 399.551 158.396 403.735 139.312 417.216C99.677 445.215 44.3609 430.463 23.9311 386.446L0 334.886Z" fill="#316DDF"/>
<path d="M0 320.105L0 667H360V320.105L350.167 315.692C319.18 301.783 283.986 300.526 252.084 312.186C237.753 317.425 222.613 320.105 207.354 320.105H191.796C173.008 320.105 154.328 317.277 136.382 311.715C99.201 300.192 59.3524 300.547 22.3821 312.73L0 320.105Z" fill="white" fill-opacity="0.5"/>
<path d="M0 295L0 701H360V285.992L328.864 308.456C310.932 321.393 291.307 331.804 270.54 339.395L269.677 339.711C243.708 349.204 216.273 354.062 188.622 354.062C171.891 354.062 155.207 352.283 138.851 348.756L124.426 345.644C88.4682 337.889 53.8492 324.879 21.6842 307.032L0 295Z" fill="white" fill-opacity="0.6"/>
<path d="M0 328V777H360V328L321.41 332.998C296.084 336.278 270.341 333.006 246.641 323.494L232.966 318.006C211.927 309.563 188.72 308.157 166.815 313.999C160.577 315.663 154.505 317.899 148.677 320.678L144.242 322.794C115.285 336.604 82.8126 341.28 51.136 336.2L0 328Z" fill="#FAFAFA"/>
</g>
<defs>
<clipPath id="clip0">
<rect width="360" height="640" fill="white"/>
</clipPath>
</defs>
</svg>
