<svg width="360" height="640" viewBox="0 0 360 640" fill="none" xmlns="http://www.w3.org/2000/svg">
<g clip-path="url(#clip0)">
<rect width="360" height="640" fill="#FAFAFA"/>
<path d="M0 414.886V0H360V475.912L321.76 505.425C300.769 521.625 271.323 520.999 251.041 503.92C244.866 498.721 237.648 494.91 229.873 492.743L205.04 485.823C182.532 479.551 158.396 483.735 139.312 497.216C99.677 525.215 44.3609 510.463 23.9311 466.446L0 414.886Z" fill="#316DDF"/>
<path d="M0 400.105L0 747H360V400.105L350.167 395.692C319.18 381.783 283.986 380.526 252.084 392.186C237.753 397.425 222.613 400.105 207.354 400.105H191.796C173.008 400.105 154.328 397.277 136.382 391.715C99.201 380.192 59.3524 380.547 22.3821 392.73L0 400.105Z" fill="white" fill-opacity="0.5"/>
<path d="M0 375L0 781H360V365.992L328.864 388.456C310.932 401.393 291.307 411.804 270.54 419.395L269.677 419.711C243.708 429.204 216.273 434.062 188.622 434.062C171.891 434.062 155.207 432.283 138.851 428.756L124.426 425.644C88.4682 417.889 53.8492 404.879 21.6842 387.032L0 375Z" fill="white" fill-opacity="0.6"/>
<path d="M0 408V857H360V408L321.41 412.998C296.084 416.278 270.341 413.006 246.641 403.494L232.966 398.006C211.927 389.563 188.72 388.157 166.815 393.999C160.577 395.663 154.505 397.899 148.677 400.678L144.242 402.794C115.285 416.604 82.8126 421.28 51.136 416.2L0 408Z" fill="#FAFAFA"/>
</g>
<defs>
<clipPath id="clip0">
<rect width="360" height="640" fill="white"/>
</clipPath>
</defs>
</svg>
